<?xml version="1.0" encoding="utf-8"?>
<!-- Generator: Adobe Illustrator 27.7.0, SVG Export Plug-In . SVG Version: 6.00 Build 0)  -->
<svg version="1.1" id="Layer_1" xmlns="http://www.w3.org/2000/svg" xmlns:xlink="http://www.w3.org/1999/xlink" x="0px" y="0px"
	 viewBox="0 0 254 249" style="enable-background:new 0 0 254 249;" xml:space="preserve">
<style type="text/css">
	.st0{fill:#AA7C09;}
	.st1{fill:#141213;}
</style>
<g transform="translate(0.000000,249.000000) scale(0.100000,-0.100000)">
	<path class="st0" d="M1090,2404c-215-41-450-150-578-269c-33-30-62-52-64-49c-8,7-63-63-136-171c-70-104-130-236-171-373
		c-48-164-43-185,8-32c27,80,72,192,101,250c51,103,190,323,198,315c2-2-10-29-27-61c-38-70-10-49,45,33c20,30,63,76,97,103
		c80,64,309,180,418,211c77,22,102,24,299,24c172,0,229-4,285-18c89-23,255-102,360-172c116-77,278-251,377-405c26-41,48-71,48-66
		c0,18-63,125-102,172c-22,27-65,82-95,121c-66,88-122,139-231,210c-102,67-202,114-318,149c-82,25-105,27-289,30
		C1205,2407,1104,2406,1090,2404z"/>
	<path class="st0" d="M1156,2370c-106-12-229-44-277-72c-73-43-216-147-281-205c-36-32-77-67-89-79c-53-46-141-144-130-144
		c6,0,60,46,120,103c210,199,340,291,474,335c242,80,549,62,746-44c133-71,270-167,331-230c30-32,76-78,101-103
		c115-115,240-364,269-541c27-160-12-405-85-535c-29-52-92-144-125-183c-6-7-8-17-4-24c4-6,3-8-3-5c-6,4-44-37-84-90
		c-149-196-377-333-628-379c-113-21-342-21-437,0c-148,32-322,114-439,206C469,497,324,691,279,829c-72,224-84,287-83,441
		c0,120,4,159,22,225c26,92,82,212,141,303c22,34,36,62,31,62c-21,0-50-42-109-161c-74-150-111-283-111-403c0-112,34-335,64-421
		c4-11-2-4-13,15c-29,49-76,199-95,299c-18,94-26,112-26,59c0-66,56-261,100-348c63-126,196-334,252-396c27-29,47-58,44-63
		c-6-9,153-127,234-174c65-37,187-84,266-103c157-36,402-36,561,1c217,50,469,217,588,387c32,46,55,75,52,65c-13-37-93-144-149-199
		c-199-196-468-298-787-298c-156,0-226,11-364,57c-129,43-233,105-399,239C364,524,295,597,250,675c-17,30-34,55-37,55
		c-6,0,39-79,79-137c35-52,150-167,238-238c68-56,275-174,361-206c141-54,371-72,555-45c61,9,120,14,130,10c14-4,15-3,6,3
		c-9,7,7,15,54,28c128,34,305,134,402,226c66,63,152,184,186,259c16,36,44,86,63,112c44,60,118,217,138,293c25,94,30,273,11,383
		c-24,136-65,232-165,383c-121,184-264,329-411,417c-126,74-228,118-318,137C1455,2374,1256,2381,1156,2370z"/>
	<path class="st0" d="M1161,2329c-139-15-258-53-311-97c-14-12-83-67-155-123c-217-170-332-303-409-471c-56-122-70-195-71-358
		c0-131,3-157,32-270c53-205,70-247,144-356c159-233,413-408,667-459c120-24,404-17,517,14c157,42,346,153,469,277
		c101,101,229,327,280,495c37,123,49,219,43,344c-8,151-38,242-128,387c-167,270-387,454-608,508c-150,38-420,52-547,29
		c-71-12-175-45-226-70c-65-33-271-195-344-271c-179-186-264-387-264-623c0-124,20-227,73-387c126-375,460-642,852-680
		c446-44,827,171,1035,582c64,127,120,346,120,471c0,138-55,318-140,455c-99,162-326,367-475,429c-50,21-223,55-273,54
		c-25-1-12-5,43-15c93-17,191-47,249-76c248-125,455-368,532-623c24-80,27-106,28-235c0-155-14-231-68-369c-73-185-230-383-391-491
		c-160-108-250-140-453-160c-337-35-689,118-895,387c-128,167-219,444-220,663c0,234,88,427,282,620c108,107,306,252,391,286
		c94,39,229,57,355,49c119-7,296-30,359-46c43-12,191-100,276-164c124-95,275-284,335-419c53-120,70-209,70-371c0-175-14-236-94-415
		c-123-275-292-447-547-557c-201-87-529-104-714-37c-190,68-365,180-461,295c-82,98-159,206-181,255c-25,58-74,231-94,332
		c-58,300,57,614,308,847c100,92,243,199,314,234c130,64,197,76,424,76c220,0,300-13,443-71c196-79,439-322,559-559
		c127-250,126-550-2-805c-23-47-36-79-27-72c26,22,95,172,118,257c33,123,38,326,10,436c-45,177-145,339-345,556
		c-54,58-173,143-313,222c-70,40-112,56-180,70C1441,2332,1269,2341,1161,2329z M1530,2296c67-15,184-55,178-62c-2-2-38,8-79,22
		c-164,56-499,56-675-1c-43-13-80-23-81-21c-6,6,93,45,143,57C1150,2321,1399,2324,1530,2296z"/>
	<path class="st0" d="M630,2168c-51-34-108-82-128-106c-21-24-71-81-114-126c-86-93-143-195-203-367c-51-144-66-233-54-323
		c11-75,49-230,55-223c3,2-5,50-16,106c-24,123-25,187-4,289c23,115,48,183,118,327c63,128,66,132,202,272c94,95,158,152,197,173
		c31,18,57,34,57,36C740,2238,712,2224,630,2168z"/>
	<path class="st0" d="M1130,2219c-79-9-195-41-243-66c-44-22-26-26,24-4c66,29,188,51,339,60c74,4,110,9,80,10s-71,3-90,5
		S1171,2224,1130,2219z"/>
	<path class="st1" d="M1553,1918c-17-18-102-157-189-308c-233-406-235-410-191-454c21-21,36-26,75-26c81,0,138,48,250,209
		c37,52,53,69,58,58c3-8,0-25-6-37c-17-31-5-53,25-48c34,7,32-2-16-47c-43-42-119-137-119-149c0-4,14,10,32,31s59,66,91,100
		c60,64,65,83,21,83c-28,0-29,3-8,35c12,18,13,27,4,37c-6,7-16,21-23,31c-11,16-20,7-82-85c-89-132-150-194-200-204
		c-31-5-41-3-52,12c-27,37-15,63,183,420c105,189,134,249,134,278c0,28,7,45,29,67c16,16,26,29,22,29S1570,1935,1553,1918z"/>
	<path class="st1" d="M1414,1847c-44-45-128-137-188-204c-60-68-111-123-113-123c-3,0-23,10-44,22c-71,40-92,100-61,171
		c23,51,63,84,153,127c35,17,53,28,39,25c-55-14-150-67-183-105c-68-74-58-158,26-220l47-35l-157-157c-160-160-217-202-290-214
		c-56-9-138,17-199,62c-46,35-47,35-21,7c50-54,121-86,191-85c96,0,140,26,300,182c77,74,135,128,130,119c-14-24-181-260-211-296
		l-26-33h41c34,0,39,3,35,18c-3,12,38,82,115,198l120,179l79-2c81-2,81,1,1,12c-27,3-48,10-48,14s42,54,93,112
		c175,199,259,300,255,304C1495,1928,1458,1893,1414,1847z"/>
	<path class="st1" d="M1946,1474c-41-54-73-100-71-103c3-2,14,8,26,22c20,26,24,27,123,27c68,0,106-4,115-12c11-11,13-10,9,2
		s-26,16-106,18c-56,1-102,5-102,7c0,3,21,32,47,65c25,33,44,63,41,66C2024,1569,1988,1528,1946,1474z"/>
	<path class="st1" d="M1917,1256c-3,3-26-17-52-45c-89-95-194-149-235-122c-13,9-12,16,8,53c35,66,97,153,108,152c5-1,27-4,49-7
		c38-6,39-6,13,6c-25,12-26,15-14,32c25,38,68,115,63,115c-3,0-23-29-46-65c-23-37-47-65-57-65c-3,0-5.3,0.2-6.9,0.7
		c-8,2.1-17.9,1.6-26,1.2c-8.4-0.5-16.9-0.1-24.8-3.5c-3.5-1.5-6.8-3.6-9.9-5.9c-29.1-21.1-46.3-58.3-64.3-88.5
		c-70-118-74-143-24-156c42-11,94,3,156,43C1807,1134,1926,1247,1917,1256z"/>
	<path class="st0" d="M101,1104c-1-12,10-65,24-119c36-144,124-296,257-442c81-90,120-117,48-33c-157,181-273,388-315,559
		C108,1100,101,1115,101,1104z"/>
	<path class="st1" d="M736,924c-24-23-20-37,19-73c19-17,35-36,35-42c0-16-31-23-51-10c-21,13-26,2-7-17c17-17,42-15,61,6
		c23,25,22,26-19,72c-39,43-37,65,4,55c22-5,24-4,13,9C774,944,756,944,736,924z"/>
	<path class="st1" d="M1624,932c-56-9-78-92-37-134c24-24,76-29,96-9c10,10,5,11-23,6s-39-2-54,14c-25,27-23,68,3,94
		c18,19,25,20,52,10c21-8,29-8,27-1C1683,927,1650,937,1624,932z"/>
	<path class="st1" d="M930,850v-80h45c25,0,45,5,45,10c0,6-16,10-35,10c-32,0-35,2-35,30s3,30,35,30c19,0,35,5,35,10
		c0,6-16,10-35,10c-30,0-35,3-35,23s4,23,29,19c16-2,32,1,35,7c5,7-8,11-38,11h-46V850z"/>
	<path class="st1" d="M1155,858c-33-72-37-104-8-60c11,16,25,22,53,22c30,0,39-5,50-27c7-16,15-23,17-16c4,12-63,153-73,153
		C1191,930,1174,897,1155,858z M1220,848c0-9-34-11-43-2c-3,3-1,17,6,31l11,24l13-23C1214,865,1219,852,1220,848z"/>
	<path class="st1" d="M1360,856c0-44,4-76,10-76s10,14,10,30c0,17,4,30,10,30c5,0,19-13,32-30c12-16,28-30,37-30c10,0,8,7-9,25
		c-20,22-22,29-12,43c36,50,24,76-37,80l-41,3V856z M1435,885c0-14-8-21-27-23c-24-3-28,0-28,23s4,26,28,23
		C1427,906,1435,899,1435,885z"/>
	<path class="st1" d="M1790,850c0-47,4-80,10-80s10,16,10,35c0,33,2,35,35,35s35-2,35-36c0-21,4-33,10-29c13,8,13,142,1,150
		c-5,3-11-9-13-27c-3-29-7-33-35-36c-32-3-33-2-33,32c0,20-4,36-10,36S1790,897,1790,850z"/>
	<path class="st0" d="M2062,672c-176-216-348-330-574-376c-98-20-301-21-403-1c-209,40-442,190-610,394c-27,33-51,58-53,56
		c-9-9,125-179,181-231c82-75,255-174,372-213c224-74,505-61,709,33c175,81,333,223,447,404C2169,796,2142,772,2062,672z"/>
	<path class="st0" d="M2307,728c-14-18-46-69-72-113s-63-102-82-130l-35-50l37,40c50,54,191,272,182,281C2334,759,2321,746,2307,728
		z"/>
</g>
</svg>
